# Blender 4.3.2
# www.blender.org
mtllib FracturePartFracture_004.mtl
o Fracture.004
v -0.001521 0.028070 0.042125
v -0.252441 -0.005120 -0.376335
v -0.194124 -0.510488 0.652026
v -0.104379 -0.418106 0.330762
v -0.186874 -0.013799 0.324975
v 0.031971 0.472936 -0.728215
v -0.077552 0.026402 -0.149662
v 0.110431 0.405033 -0.378783
v 0.233491 0.681983 -0.779118
v -0.119482 0.231002 -0.533777
v 0.050591 0.204281 -0.025311
v 0.002145 -0.141008 0.089612
v -0.078875 -0.692184 0.656406
v -0.177801 -0.481106 0.479711
v -0.261446 -0.305194 0.660406
v -0.264323 -0.052259 0.495293
v -0.171222 -0.222960 0.324607
v -0.150089 -0.498352 0.816737
v 0.001949 -0.339558 0.227140
v -0.066071 0.013832 0.187225
v -0.056310 -0.170463 0.208038
v -0.044960 -0.664463 0.819718
v 0.264450 0.580667 -0.463797
v -0.008177 0.216398 -0.261209
v -0.074314 -0.157394 -0.069748
v -0.247921 -0.272134 0.482823
v 0.257598 0.767711 -0.979736
v -0.267993 -0.205352 0.668711
v -0.265961 -0.058275 0.522385
v -0.261289 -0.035447 0.496808
v -0.176272 -0.419687 0.819671
v -0.234584 -0.309131 0.749041
v -0.249569 -0.020343 0.474208
v -0.170550 0.076299 0.326960
v -0.106466 0.104410 0.257095
v -0.036174 0.147274 0.168602
v -0.018811 0.168515 0.136241
v 0.053935 0.244987 0.013002
v 0.007367 0.204596 0.083452
v 0.264634 0.578957 -0.454823
v 0.270703 0.585666 -0.465429
v 0.178173 0.451946 -0.272742
v 0.135687 0.382136 -0.175976
v 0.097654 0.286871 -0.057045
v 0.116149 0.341883 -0.123442
v -0.146672 -0.461299 0.841217
v -0.129693 -0.485763 0.854132
v -0.027768 -0.597939 0.897500
v -0.012618 -0.638614 0.884339
v 0.028694 -0.719071 0.845454
v 0.046997 -0.754879 0.828052
v 0.511539 0.583193 -0.621451
v 0.430162 0.831504 -0.812669
v 0.260810 0.771151 -0.987549
v 0.221229 0.732133 -1.018794
v 0.334972 0.796739 -0.910640
v 0.266213 0.774570 -0.982546
v 0.408468 0.825363 -0.835686
v 0.209351 0.720016 -1.012699
v 0.509255 0.569998 -0.606943
v 0.202255 0.712774 -1.008910
v 0.506770 0.556456 -0.591961
v -0.303106 -0.052840 -0.387791
v -0.289796 -0.022332 -0.417399
v -0.245735 -0.063271 -0.333601
v -0.175273 -0.131773 -0.195706
v -0.138793 0.230722 -0.634103
v -0.194012 0.157823 -0.580015
v -0.102059 -0.168175 -0.096973
v -0.265342 0.003874 -0.433567
v -0.061242 -0.484206 0.336911
v -0.078651 -0.559836 0.421405
v -0.032945 -0.442008 0.302992
v -0.004430 -0.223415 0.043267
v -0.079411 -0.173006 -0.074667
v -0.067848 -0.174976 -0.063915
v -0.043446 -0.726698 0.660209
v -0.070221 -0.680198 0.581589
v -0.090425 -0.617182 0.486486
v -0.045454 0.381512 -0.760842
v 0.006168 0.456228 -0.819817
v 0.158866 -0.637524 0.689949
v 0.294957 -0.425246 0.514868
v 0.037646 -0.274653 0.138845
v 0.021782 -0.323245 0.189803
v 0.041822 -0.254402 0.115876
v 0.141264 0.650417 -0.972434
v 0.115548 0.618569 -0.949938
v 0.014764 -0.358753 0.230294
v 0.017818 -0.349045 0.220032
v 0.066204 -0.781721 0.808778
v 0.430162 0.831504 -0.812669
v 0.430162 0.831504 -0.812669
v 0.408468 0.825363 -0.835686
v 0.511539 0.583193 -0.621451
v 0.260810 0.771151 -0.987549
v 0.221229 0.732133 -1.018794
v 0.334972 0.796739 -0.910640
v 0.266213 0.774570 -0.982546
v 0.509255 0.569998 -0.606943
v 0.209351 0.720016 -1.012699
v 0.202255 0.712774 -1.008910
v 0.506770 0.556456 -0.591961
v -0.043446 -0.726698 0.660209
v -0.070221 -0.680198 0.581589
v -0.090425 -0.617182 0.486486
v -0.078651 -0.559836 0.421405
v -0.061242 -0.484206 0.336911
v -0.032945 -0.442008 0.302992
v 0.014764 -0.358753 0.230294
v 0.017818 -0.349045 0.220032
v 0.021782 -0.323245 0.189803
v 0.037646 -0.274653 0.138845
v 0.041822 -0.254402 0.115876
v -0.004430 -0.223415 0.043267
v -0.067848 -0.174976 -0.063915
v -0.079411 -0.173006 -0.074667
v -0.102059 -0.168175 -0.096973
v -0.175273 -0.131773 -0.195706
v -0.245735 -0.063271 -0.333601
v -0.303106 -0.052840 -0.387791
v -0.289796 -0.022332 -0.417399
v -0.265342 0.003874 -0.433567
v -0.194012 0.157823 -0.580015
v -0.138793 0.230722 -0.634103
v -0.045454 0.381512 -0.760842
v 0.006168 0.456228 -0.819817
v 0.115548 0.618569 -0.949938
v 0.141264 0.650417 -0.972434
v 0.294957 -0.425246 0.514868
v 0.158866 -0.637524 0.689949
v 0.066204 -0.781721 0.808778
v 0.066204 -0.781721 0.808778
v -0.027768 -0.597939 0.897500
v -0.012618 -0.638614 0.884339
v 0.028694 -0.719071 0.845454
v 0.046997 -0.754879 0.828052
v -0.176272 -0.419687 0.819671
v -0.234584 -0.309131 0.749041
v -0.146672 -0.461299 0.841217
v -0.129693 -0.485763 0.854132
v -0.267993 -0.205352 0.668711
v -0.018811 0.168515 0.136241
v 0.007367 0.204596 0.083452
v -0.036174 0.147274 0.168602
v -0.170550 0.076299 0.326960
v -0.106466 0.104410 0.257095
v 0.053935 0.244987 0.013002
v 0.097654 0.286871 -0.057045
v 0.264634 0.578957 -0.454823
v 0.178173 0.451946 -0.272742
v 0.135687 0.382136 -0.175976
v 0.270703 0.585666 -0.465429
v 0.116149 0.341883 -0.123442
v -0.265961 -0.058275 0.522385
v -0.261289 -0.035447 0.496808
v -0.249569 -0.020343 0.474208
vn 0.7374 -0.2435 -0.6300
vn 0.4230 -0.7025 -0.5724
vn 0.4176 -0.7074 -0.5702
vn 0.7481 0.0650 0.6603
vn 0.7490 0.0623 0.6596
vn -0.9763 -0.2009 0.0804
vn -0.9004 -0.4322 0.0490
vn -0.8258 -0.3980 0.3995
vn -0.8984 -0.3083 0.3129
vn -0.9288 -0.2517 0.2721
vn -0.7502 -0.3820 0.5396
vn -0.7957 -0.2811 0.5365
vn -0.9974 -0.0717 0.0088
vn -0.6573 -0.3644 -0.6597
vn -0.6103 -0.4016 -0.6829
vn -0.4999 -0.4628 -0.7320
vn -0.4466 -0.4118 -0.7943
vn -0.6102 -0.4590 -0.6457
vn -0.7551 -0.3877 -0.5287
vn -0.5927 -0.5518 -0.5867
vn -0.7572 -0.2083 -0.6191
vn -0.9879 -0.1511 -0.0340
vn -0.8935 -0.3464 -0.2859
vn -0.7778 -0.3585 -0.5162
vn -0.7785 -0.1705 -0.6041
vn -0.8431 0.0459 -0.5358
vn -0.8374 0.0195 -0.5463
vn -0.9864 0.1591 -0.0402
vn -0.9110 0.1795 -0.3714
vn -0.9083 0.4148 -0.0531
vn -0.8808 0.1393 -0.4526
vn -0.9155 0.1401 -0.3772
vn -0.8269 0.1483 -0.5425
vn -0.7732 0.1334 -0.6200
vn -0.8629 0.3822 -0.3307
vn -0.8268 0.5539 0.0980
vn -0.6802 -0.6636 0.3114
vn -0.7235 -0.5639 0.3982
vn -0.7750 -0.6311 0.0332
vn -0.6994 -0.7025 0.1316
vn -0.6889 -0.6775 0.2577
vn -0.6823 -0.4928 0.5400
vn -0.6152 -0.5760 0.5383
vn -0.7168 -0.4432 0.5382
vn -0.7238 0.6574 0.2098
vn -0.7117 0.6621 0.2347
vn -0.6252 0.7455 0.2311
vn -0.6149 0.7433 0.2635
vn -0.6913 0.7058 0.1549
vn -0.7779 0.6009 0.1836
vn -0.7130 0.6843 0.1527
vn -0.5543 0.7859 0.2741
vn -0.5465 0.7854 0.2906
vn -0.5430 0.7825 0.3046
vn -0.7061 0.5471 0.4496
vn -0.7343 0.6222 0.2715
vn -0.7707 0.6121 0.1770
vn -0.7518 0.6142 0.2399
vn -0.7209 0.6407 0.2644
vn -0.7812 0.6122 0.1220
vn -0.7798 0.6098 0.1416
vn -0.8250 0.3764 0.4215
vn -0.7667 0.5714 0.2927
vn -0.7943 0.5764 0.1918
vn -0.8335 -0.1312 0.5367
vn -0.8294 0.0735 0.5538
vn -0.7517 0.2563 0.6076
vn -0.6949 0.0003 0.7192
vn -0.8741 -0.1832 0.4498
vn -0.7102 0.3381 0.6175
vn -0.7553 0.2964 0.5846
vn -0.8041 -0.5670 -0.1785
vn -0.8422 -0.4117 -0.3481
vn -0.7970 -0.5245 -0.2996
vn -0.6886 -0.4753 -0.5476
vn -0.9377 -0.1827 -0.2957
vn -0.9707 0.0599 -0.2326
vn -0.9970 -0.0249 -0.0729
vn -0.6570 0.6874 0.3096
vn -0.6309 0.5779 0.5177
vn -0.6939 0.6921 0.1988
vn -0.6581 0.7505 0.0598
vn -0.6424 0.7515 0.1502
vn -0.5687 0.7941 0.2146
vn -0.7093 0.7047 0.0186
vn -0.6863 0.7026 0.1879
vn -0.5529 0.7906 0.2632
vn -0.9463 0.1779 -0.2699
vn -0.9109 0.1738 -0.3743
vn 0.4245 0.6356 0.6449
vn 0.4011 -0.7221 -0.5637
vt 0.674558 0.008136
vt 0.685634 0.045044
vt 0.638555 0.001063
vt 0.645583 -0.000000
vt 0.646523 0.000082
vt 0.658263 0.003663
vt 0.670863 0.006905
vt 0.685681 0.047517
vt 0.637157 0.002837
vt 0.685717 0.050067
vt 0.636329 0.003911
vt 0.837242 0.455855
vt 0.867621 0.514844
vt 0.862291 0.516817
vt 0.850194 0.519236
vt 0.838892 0.494287
vt 0.844810 0.520310
vt 0.840021 0.520397
vt 0.010984 0.924176
vt 0.023937 0.947293
vt 0.004932 0.957141
vt 0.000000 0.948242
vt 0.001371 0.930655
vt 0.000000 0.959236
vt 0.000016 0.955177
vt 0.004140 0.915028
vt 0.614039 0.968802
vt 0.620960 0.949452
vt 0.623362 0.950889
vt 0.622881 0.965885
vt 0.622495 0.973400
vt 0.623103 0.944216
vt 0.623330 0.949088
vt 0.603367 0.935445
vt 0.611725 0.920933
vt 0.622826 0.931411
vt 0.622967 0.935213
vt 0.592888 0.953932
vt 0.573977 0.936452
vt 0.588168 0.918150
vt 0.599738 0.902527
vt 0.583151 0.890318
vt 0.592373 0.879753
vt 0.580094 0.903938
vt 0.581362 0.898778
vt 0.567437 0.928201
vt 0.573647 0.917592
vt 0.883034 0.134241
vt 0.876273 0.145073
vt 0.877524 0.133774
vt 0.878886 0.122528
vt 0.018380 0.995229
vt 0.014186 0.979972
vt 0.033936 0.972338
vt 0.035467 0.978215
vt 0.022046 0.998147
vt 0.005429 0.983011
vt 0.014384 0.991473
vt 0.001600 0.978841
vt 0.937080 0.056969
vt 0.902256 0.086480
vt 0.891046 0.057450
vt 0.917794 0.025510
vt 0.890286 0.058298
vt 0.882831 0.103270
vt 0.885520 0.087654
vt 0.890517 0.056592
vt 0.903826 0.000350
vt 0.899851 0.000585
vt 0.946600 0.138790
vt 0.940958 0.100061
vt 0.951573 0.093056
vt 0.953862 0.106165
vt 0.952399 0.134134
vt 0.948088 0.052341
vt 0.949742 0.065808
vt 0.911571 0.145447
vt 0.908430 0.117390
vt 0.888336 0.156771
vt 0.881212 0.111764
vt 0.814218 0.870412
vt 0.812604 0.868676
vt 0.814430 0.864690
vt 0.814295 0.868535
vt 0.814380 0.887150
vt 0.814430 0.898614
vt 0.803350 0.888677
vt 0.911964 0.166804
vt 0.891027 0.174307
vt 0.944708 0.146652
vt 0.929845 0.159741
vt 0.916972 0.166921
vt 0.041441 0.968350
vt 0.041128 0.937686
vt 0.048227 0.956684
vt 0.622960 0.987563
vt 0.623362 0.998332
vt 0.605734 0.989298
vt 0.028544 0.913784
vt 0.014120 0.893221
vt 0.011497 0.894925
vt 0.582658 0.974118
vt 0.562116 0.956736
vt 0.953862 0.138818
vt 0.953457 0.144366
vt 0.944880 0.023061
vt 0.930979 0.000155
vt 0.930651 0.001224
vt 0.929974 -0.000000
vt 0.938451 0.002876
vt 0.939296 0.004960
vt 0.939787 0.006217
vt 0.943658 0.017344
vt 0.917354 0.000439
vt 0.213731 0.373381
vt 0.215124 0.374503
vt 0.213731 0.377659
vt 0.560831 0.955291
vt 0.561664 0.951679
vt 0.905381 0.448785
vt 0.905354 0.452855
vt 0.902197 0.476321
vt 0.896262 0.489461
vt 0.887523 0.501229
vt 0.883419 0.504908
vt 0.881049 0.507110
vt 0.837242 0.279792
vt 0.837288 0.277406
vt 0.837348 0.275094
vt 0.851703 0.243800
vt 0.863029 0.298334
vt 0.863521 0.299991
vt 0.869806 0.328566
vt 0.872725 0.343778
vt 0.873880 0.352063
vt 0.874586 0.362580
vt 0.878277 0.373495
vt 0.882305 0.384454
vt 0.884262 0.392730
vt 0.885622 0.397794
vt 0.892117 0.411471
vt 0.898290 0.422205
vt 0.904480 0.445246
vt 0.663549 0.298001
vt 0.645802 0.281631
vt 0.640428 0.270983
vt 0.635492 0.257330
vt 0.635405 0.246362
vt 0.635564 0.231988
vt 0.638366 0.224865
vt 0.642710 0.210421
vt 0.642850 0.208615
vt 0.642616 0.203616
vt 0.643401 0.194607
vt 0.643373 0.190735
vt 0.635643 0.182267
vt 0.624858 0.169459
vt 0.623107 0.168504
vt 0.619648 0.166438
vt 0.607811 0.155579
vt 0.595364 0.138394
vt 0.586659 0.133525
vt 0.587641 0.128030
vt 0.590386 0.123939
vt 0.595951 0.096414
vt 0.601717 0.084415
vt 0.610596 0.058588
vt 0.615779 0.046051
vt 0.626636 0.018675
vt 0.629387 0.013510
vt 0.685717 0.237331
vt 0.672533 0.273463
s 0
usemtl meteorFracture
f 92/1/1 95/2/1 97/3/1 96/4/1 99/5/1 98/6/1 94/7/1
f 95/2/2 100/8/2 101/9/2 97/3/2
f 101/9/3 100/8/3 103/10/3 102/11/3
f 130/12/4 134/13/4 135/14/4 136/15/4 131/16/4
f 136/15/5 137/17/5 132/18/5 131/16/5
s 1
f 15/19/6 3/20/7 18/21/8 138/22/9 139/23/10
f 18/21/8 141/24/11 140/25/12 138/22/9
f 142/26/13 15/19/6 139/23/10
f 4/27/14 19/28/15 110/29/16 109/30/17 108/31/18
f 19/28/15 112/32/19 111/33/20 110/29/16
f 21/34/21 12/35/22 114/36/23 113/37/24 112/32/19 19/28/15
f 19/28/15 4/27/14 17/38/25 21/34/21
f 21/34/21 17/38/25 5/39/26 20/40/27
f 12/35/22 21/34/21 20/40/27 1/41/28
f 144/42/29 11/43/30 1/41/28 20/40/27 145/44/31 143/45/32
f 5/39/26 146/46/33 147/47/34 145/44/31 20/40/27
f 11/48/30 144/49/29 148/50/35 149/51/36
f 51/52/37 22/53/38 13/54/39 104/55/40 133/56/41
f 49/57/42 22/53/38 51/52/37 50/58/43
f 141/24/11 18/21/8 22/53/38 49/57/42 48/59/44
f 13/54/39 22/53/38 18/21/8 3/20/7
f 6/60/45 8/61/46 23/62/47 9/63/48
f 150/64/49 23/62/47 8/61/46 152/65/50 151/66/51
f 23/62/47 150/64/49 153/67/52
f 58/68/53 9/63/48 23/62/47 153/67/52 93/69/54
f 2/70/55 10/71/56 125/72/57 124/73/58 123/74/59
f 10/71/56 6/60/45 127/75/60 126/76/61 125/72/57
f 2/70/55 7/77/62 24/78/63 10/71/56
f 7/77/62 1/79/28 11/48/30 24/78/63
f 152/65/50 8/61/46 24/78/63 11/48/30 149/51/36 154/80/64
f 10/71/56 24/78/63 8/61/46 6/60/45
f 116/81/65 25/82/66 118/83/67 117/84/68
f 115/85/69 114/86/23 12/87/22 25/82/66 116/81/65
f 25/88/66 12/89/22 1/79/28 7/77/62
f 25/88/66 7/77/62 2/70/55 120/90/70 119/91/71 118/92/67
f 105/93/72 104/55/40 13/54/39
f 13/54/39 3/20/7 14/94/73 106/95/74 105/93/72
f 107/96/75 106/97/74 14/98/73 4/27/14 108/31/18
f 3/20/7 15/19/6 26/99/76 14/94/73
f 16/100/77 26/99/76 15/19/6 142/26/13 155/101/78
f 26/102/76 16/103/77 5/39/26 17/38/25
f 14/98/73 26/102/76 17/38/25 4/27/14
f 2/70/55 123/74/59 122/104/79 121/105/80
f 120/90/70 2/70/55 121/105/80
f 6/60/45 128/106/81 127/75/60
f 54/107/82 27/108/83 57/109/84
f 27/108/83 54/107/82 55/110/85 59/111/85 61/112/85 129/113/86
f 128/106/81 6/60/45 9/63/48 27/108/83 129/113/86
f 56/114/87 57/109/84 27/108/83 9/63/48 58/68/53
f 156/115/88 16/116/77 155/117/78
f 146/46/33 5/39/26 16/103/77 156/118/88 157/119/89
s 0
f 30/120/90 29/121/90 28/122/90 32/123/90 31/124/90 46/125/90 47/126/90 134/13/90 130/12/90 62/127/90 60/128/90 52/129/90 53/130/90 41/131/90 40/132/90 42/133/90 43/134/90 45/135/90 44/136/90 38/137/90 39/138/90 37/139/90 36/140/90 35/141/90 34/142/90 33/143/90
f 91/144/91 77/145/91 78/146/91 79/147/91 72/148/91 71/149/91 73/150/91 89/151/91 90/152/91 85/153/91 84/154/91 86/155/91 74/156/91 76/157/91 75/158/91 69/159/91 66/160/91 65/161/91 63/162/91 64/163/91 70/164/91 68/165/91 67/166/91 80/167/91 81/168/91 88/169/91 87/170/91 102/11/91 103/10/91 83/171/91 82/172/91
