# Blender 4.3.2
# www.blender.org
mtllib FracturePartFracture.mtl
o Fracture
v 0.788434 0.971472 -0.795576
v 0.303730 0.528667 0.708360
v 0.165246 0.551018 0.380728
v -0.541708 -0.419023 0.658225
v -0.445033 -0.566293 0.414440
v -0.729991 -0.799152 0.275572
v 0.299173 0.788339 -0.099214
v -0.052916 0.429240 -0.387681
v 0.635759 0.910801 -0.196548
v 0.379346 0.697168 -0.643616
v 0.078622 0.604492 0.097695
v 0.485871 0.771819 0.178976
v -0.104957 -0.109880 1.126033
v -0.291774 -0.038940 0.595661
v -0.352805 0.052844 0.127203
v -0.581825 -0.642492 0.044655
v -0.411061 -0.522992 1.097787
v -0.638523 -0.461142 0.352474
v -0.334887 -0.374521 -0.522028
v -0.252339 -0.527425 -0.612707
v -0.024462 -0.390092 -0.860693
v 0.109369 -0.118216 -0.937630
v 0.108541 0.264349 0.907701
v -0.056854 0.270613 0.499266
v -0.215500 -0.063467 0.851464
v 0.226133 0.526085 0.550328
v -0.499886 -0.280446 0.069153
v -0.332611 0.018182 0.362718
v 0.132634 0.668766 -0.252773
v -0.207775 0.267179 -0.158062
v 0.511419 0.867441 -0.412137
v 0.152046 0.559459 -0.540597
v 0.462727 0.840580 -0.149978
v 0.735807 0.562040 -0.910907
v 0.593911 0.863674 -0.730132
v 0.407045 0.803798 0.042202
v 0.332741 0.708222 0.267871
v -0.085701 0.421709 0.096944
v 0.119304 0.593078 0.216774
v 0.171662 0.710132 -0.003783
v 0.841764 1.119177 -0.577606
v -0.470433 -0.451760 0.894729
v -0.688748 -0.589103 0.309452
v -0.594154 -0.413720 0.468312
v -0.334363 -0.376323 1.124537
v -0.476072 -0.274352 0.646832
v -0.697438 -0.741288 0.199026
v -0.569788 -0.280611 0.282158
v -0.389589 -0.552291 0.488137
v -0.456744 -0.490674 0.645495
v -0.549974 -0.536337 0.386927
v -0.307555 -0.489556 -0.624265
v -0.016775 -0.317749 -0.929760
v -0.128510 -0.333792 -0.761977
v -0.109341 -0.097844 -0.776902
v -0.210262 0.075267 -0.473974
v 0.244482 0.357223 -0.824592
v -0.464795 -0.519642 -0.210188
v 0.393685 -0.035726 -0.945759
v 0.010082 0.248899 0.712102
v -0.092804 0.332570 0.293833
v -0.364509 -0.096589 -0.194037
v -0.003594 0.550745 -0.096860
v 0.494341 0.489019 -0.891260
v -0.066948 -0.441144 -0.647114
v 0.314835 0.760249 -0.344873
v 0.688814 1.015845 -0.495905
v 0.575286 0.838718 -0.001452
v 0.269734 0.739607 0.121652
v 0.404145 0.684032 0.422464
v -0.400895 -0.304283 0.902293
v -0.639174 -0.463915 0.230210
v -0.525143 -0.245106 0.428735
v -0.391680 -0.521864 0.859883
v -0.586432 -0.634441 0.352265
v -0.507416 -0.492871 0.480970
v -0.150388 -0.256073 -0.806804
v 0.002031 0.230478 -0.686964
v -0.731105 -0.852221 0.261572
v -0.714023 -0.839201 0.271091
v -0.700830 -0.837331 0.178114
v -0.669538 -0.805053 0.298843
v -0.628960 -0.774457 0.317370
v -0.626912 -0.792820 0.074320
v -0.324482 -0.484624 1.194974
v -0.384497 -0.532232 1.138673
v -0.390524 -0.541201 1.081698
v -0.406878 -0.549927 1.118402
v -0.537673 -0.705359 0.362356
v -0.608386 -0.758791 0.328647
v -0.588581 -0.769111 0.027858
v -0.522881 -0.734347 -0.124225
v -0.479728 -0.710477 -0.211386
v -0.457478 -0.644958 0.397480
v -0.448870 -0.638409 0.402068
v -0.441716 -0.633029 0.405096
v -0.409673 -0.606486 0.448729
v -0.418126 -0.678955 -0.367193
v -0.274217 -0.594213 -0.594720
v -0.332146 -0.634959 -0.584644
v -0.347680 -0.643492 -0.552534
v -0.374752 -0.542991 0.921029
v -0.360159 -0.538156 0.851778
v -0.352078 -0.549783 0.637666
v -0.354961 -0.555871 0.588267
v -0.374979 -0.576048 0.516844
v -0.380927 -0.582395 0.491294
v -0.380382 -0.660047 -0.467637
v -0.220114 -0.407940 1.217064
v -0.124762 -0.337633 1.240274
v -0.020645 -0.431949 -0.836564
v -0.023627 -0.435621 -0.855393
v -0.038179 -0.435723 -0.728343
v -0.076113 -0.455448 -0.636265
v -0.064232 -0.447347 -0.641473
v -0.059780 -0.445192 -0.654251
v -0.207859 -0.545834 -0.585320
v 0.099099 -0.352616 -0.917506
v 0.054466 -0.384451 -0.915165
v -0.014763 -0.425010 -0.803156
v -0.014789 -0.434308 -0.917180
v 0.893791 0.219990 -0.888165
v 0.774937 0.132573 -0.914404
v 0.700399 0.078121 -0.926298
v 0.537481 -0.039749 -0.938237
v 0.373439 -0.156763 -0.929729
v 0.313084 -0.200203 -0.931364
v 0.031391 -0.223056 1.271379
v 0.001442 -0.245633 1.258013
v -0.017361 -0.434577 -0.897801
v -0.261979 -0.585577 -0.596507
v 0.071106 -0.028095 1.224543
v 0.088875 0.015925 1.190562
v 0.917872 0.435008 -0.887385
v 0.926754 0.523874 -0.884216
v 0.946916 0.902379 -0.823737
v 0.947075 0.934221 -0.814563
v 0.895569 1.077489 -0.634428
v 0.908793 1.046119 -0.679045
v 0.193322 0.296367 0.996941
v 0.121343 0.096430 1.128384
v 0.527108 0.759215 0.248858
v 0.470633 0.708432 0.383645
v 0.566388 0.783956 0.151952
v 0.432195 0.680585 0.477388
v 0.342446 0.560202 0.679747
v 0.319305 0.531465 0.732611
v 0.639923 0.857711 -0.021274
v 0.611101 0.823351 0.044996
v 0.686728 0.901277 -0.132539
v 0.746026 0.994141 -0.262264
v 0.760104 1.009068 -0.295187
v 0.769174 1.021236 -0.315636
v 0.853182 1.112501 -0.511444
v 0.816285 1.074262 -0.424891
v 0.863700 1.110670 -0.539915
v 0.881284 1.111238 -0.586429
v -0.731105 -0.852221 0.261572
v -0.700830 -0.837331 0.178114
v -0.626912 -0.792820 0.074320
v -0.064232 -0.447347 -0.641473
v -0.059780 -0.445192 -0.654251
v -0.537673 -0.705359 0.362356
v -0.608386 -0.758791 0.328647
v -0.628960 -0.774457 0.317370
v -0.669538 -0.805053 0.298843
v -0.714023 -0.839201 0.271091
v -0.324482 -0.484624 1.194974
v -0.384497 -0.532232 1.138673
v -0.406878 -0.549927 1.118402
v -0.390524 -0.541201 1.081698
v -0.457478 -0.644958 0.397480
v -0.448870 -0.638409 0.402068
v -0.588581 -0.769111 0.027858
v -0.522881 -0.734347 -0.124225
v -0.479728 -0.710477 -0.211386
v -0.418126 -0.678955 -0.367193
v -0.380382 -0.660047 -0.467637
v -0.347680 -0.643492 -0.552534
v -0.332146 -0.634959 -0.584644
v -0.274217 -0.594213 -0.594720
v -0.261979 -0.585577 -0.596507
v -0.207859 -0.545834 -0.585320
v -0.076113 -0.455448 -0.636265
v -0.038179 -0.435723 -0.728343
v -0.014763 -0.425010 -0.803156
v -0.020645 -0.431949 -0.836564
v -0.023627 -0.435621 -0.855393
v -0.017361 -0.434577 -0.897801
v -0.014789 -0.434308 -0.917180
v 0.054466 -0.384451 -0.915165
v 0.099099 -0.352616 -0.917506
v 0.313084 -0.200203 -0.931364
v 0.373439 -0.156763 -0.929729
v 0.537481 -0.039749 -0.938237
v 0.700399 0.078121 -0.926298
v 0.774937 0.132573 -0.914404
v 0.893791 0.219990 -0.888165
v 0.031391 -0.223056 1.271379
v 0.001442 -0.245633 1.258013
v -0.124762 -0.337633 1.240274
v -0.220114 -0.407940 1.217064
v -0.374752 -0.542991 0.921029
v -0.360159 -0.538156 0.851778
v -0.352078 -0.549783 0.637666
v -0.354961 -0.555871 0.588267
v -0.374979 -0.576048 0.516844
v -0.380927 -0.582395 0.491294
v -0.409673 -0.606486 0.448729
v -0.441716 -0.633029 0.405096
v 0.071106 -0.028095 1.224543
v 0.088875 0.015925 1.190562
v 0.917872 0.435008 -0.887385
v 0.926754 0.523874 -0.884216
v 0.946916 0.902379 -0.823737
v 0.947075 0.934221 -0.814563
v 0.908793 1.046119 -0.679045
v 0.895569 1.077489 -0.634428
v 0.853182 1.112501 -0.511444
v 0.863700 1.110670 -0.539915
v 0.816285 1.074262 -0.424891
v 0.769174 1.021236 -0.315636
v 0.760104 1.009068 -0.295187
v 0.746026 0.994141 -0.262264
v 0.686728 0.901277 -0.132539
v 0.639923 0.857711 -0.021274
v 0.611101 0.823351 0.044996
v 0.566388 0.783956 0.151952
v 0.527108 0.759215 0.248858
v 0.470633 0.708432 0.383645
v 0.432195 0.680585 0.477388
v 0.342446 0.560202 0.679747
v 0.319305 0.531465 0.732611
v 0.193322 0.296367 0.996941
v 0.121343 0.096430 1.128384
v 0.881284 1.111238 -0.586429
vn 0.5817 -0.8107 0.0660
vn 0.9308 -0.1055 0.3501
vn 0.9307 -0.1046 0.3505
vn -0.2275 0.6376 -0.7360
vn -0.1908 0.9627 -0.1920
vn 0.1365 0.9075 -0.3972
vn 0.0732 0.8037 -0.5905
vn 0.0673 0.4673 -0.8815
vn -0.3757 0.9111 0.1695
vn 0.2450 0.9666 0.0755
vn 0.1569 0.0141 -0.9875
vn 0.0289 0.0545 -0.9981
vn -0.0558 0.1942 -0.9794
vn 0.1111 0.1081 -0.9879
vn 0.0571 0.2143 -0.9751
vn -0.5827 0.7566 0.2965
vn -0.5817 0.7634 0.2808
vn -0.6489 0.6604 0.3779
vn -0.6171 0.6638 0.4225
vn -0.6209 0.5344 0.5735
vn -0.5814 0.5256 0.6211
vn -0.6067 0.6153 0.5034
vn -0.5011 0.4044 0.7651
vn -0.5132 0.3567 0.7806
vn -0.6869 0.6588 0.3069
vn -0.7087 0.6244 0.3285
vn -0.5938 0.7478 0.2969
vn -0.5940 0.7321 0.3333
vn -0.6965 0.6504 0.3030
vn -0.7264 0.6275 0.2803
vn -0.7234 0.6342 0.2730
vn -0.7589 0.6123 0.2218
vn -0.6141 0.7223 0.3181
vn -0.6752 0.7062 0.2129
vn -0.7648 0.6261 0.1518
vn -0.8486 0.5290 0.0023
vn -0.5271 -0.8338 0.1641
vn -0.7152 -0.5614 0.4163
vn -0.8574 -0.1760 0.4835
vn -0.9304 -0.2037 0.3049
vn -0.7697 -0.1471 0.6212
vn -0.5262 -0.4417 0.7266
vn -0.4820 -0.1757 0.8584
vn -0.8830 0.1729 -0.4363
vn -0.8938 0.3334 -0.2999
vn -0.9088 0.3361 -0.2473
vn -0.9273 0.1626 -0.3371
vn -0.8489 0.5142 -0.1221
vn -0.7644 0.5689 -0.3034
vn -0.8483 0.3783 -0.3704
vn -0.9009 0.2150 -0.3769
vn -0.7432 0.6689 -0.0122
vn -0.5796 0.8072 0.1116
vn -0.4209 0.9070 0.0108
vn -0.6212 0.7648 -0.1707
vn -0.2947 0.1591 -0.9422
vn -0.4686 0.4030 -0.7861
vn -0.2980 0.3073 -0.9037
vn -0.0624 0.0309 -0.9976
vn -0.5991 0.6515 -0.4654
vn -0.5534 0.6210 -0.5551
vn -0.0060 0.0264 -0.9996
vn -0.1694 -0.7027 -0.6911
vn -0.3003 -0.7458 -0.5947
vn -0.6724 -0.6728 -0.3086
vn 0.1673 -0.6650 -0.7279
vn 0.0945 -0.4573 -0.8843
vn -0.4234 -0.6160 -0.6643
vn 0.2626 -0.5540 -0.7900
vn -0.9186 -0.3017 -0.2551
vn -0.7940 -0.5715 -0.2074
vn -0.6640 -0.6863 -0.2968
vn -0.5140 0.8358 -0.1928
vn -0.6340 0.6382 -0.4368
vn -0.3377 0.9388 0.0685
vn -0.4043 0.8839 0.2350
vn -0.5647 0.8228 -0.0646
vn -0.9246 0.0867 -0.3709
vn -0.9176 0.0936 -0.3863
vn -0.8709 0.1208 -0.4763
vn -0.9333 0.0781 -0.3504
vn -0.9336 0.0773 -0.3498
vn -0.9998 -0.0140 0.0148
vn -0.9861 0.0059 0.1661
vn -0.5850 0.8105 -0.0303
vn -0.5252 0.8200 0.2275
vn -0.5513 0.8129 0.1878
vn -0.5338 0.8249 0.1859
vn -0.4913 0.8519 0.1812
vn -0.2304 0.9253 0.3013
vn -0.3023 0.8981 0.3193
vn -0.1762 0.9431 0.2821
vn -0.2319 0.9481 0.2174
vn -0.1024 0.9343 0.3414
vn -0.1500 0.9476 0.2820
vn -0.0812 0.9550 0.2852
vn -0.5128 0.8187 0.2583
vn -0.4159 0.8674 0.2732
vn -0.3693 0.8712 0.3234
vn -0.1750 0.9515 0.2532
vn -0.3771 0.8875 0.2649
vn -0.2211 0.9426 0.2500
vn -0.4408 0.8641 0.2430
vn -0.9722 -0.0906 0.2161
vn -0.9627 0.0427 0.2672
vn -0.7678 0.2993 0.5665
vn -0.6604 0.3601 0.6590
vn -0.6936 0.4532 0.5600
vn -0.4948 0.4270 0.7569
vn -0.9452 -0.1929 0.2633
vn -0.9532 -0.1913 0.2341
vn -0.7859 0.5130 0.3454
vn -0.8079 0.5190 0.2791
vn -0.9040 -0.0170 0.4272
vn -0.8965 0.1085 0.4296
vn -0.9156 0.3134 -0.2520
vn -0.9028 0.1797 -0.3908
vn -0.9177 0.1020 0.3839
vn -0.8828 0.4683 -0.0363
vn -0.8944 0.1225 -0.4302
vn -0.9912 -0.0208 0.1310
vn -0.8278 0.1411 -0.5430
vn -0.9362 -0.0782 0.3428
vn -0.8258 0.5247 0.2069
vn -0.7239 -0.6656 -0.1816
vn -0.5800 -0.8142 -0.0246
vn -0.5640 -0.8181 0.1118
vn -0.4741 -0.8761 0.0877
vn -0.4855 -0.8728 -0.0492
vn -0.6516 -0.7547 -0.0766
vn -0.3795 -0.1225 0.9171
vn -0.3802 -0.0912 0.9204
vn -0.3459 -0.1052 0.9323
vn -0.3271 -0.1644 0.9306
vn -0.4887 -0.4063 0.7721
vn -0.3217 -0.1807 0.9294
vn -0.3844 -0.1217 0.9151
vn -0.3906 -0.0868 0.9164
vn -0.3587 -0.2438 0.9011
vn -0.5530 -0.7578 0.3463
vn 0.0059 -0.0901 -0.9959
vn 0.0593 -0.0974 -0.9935
vn 0.0164 -0.1024 -0.9946
vn 0.1273 -0.2819 -0.9509
vn 0.0212 -0.2664 -0.9636
vn -0.7940 -0.0164 -0.6077
vn -0.6685 -0.1179 -0.7343
vn -0.9329 0.0794 -0.3513
vn -0.4469 -0.0706 -0.8918
vn 0.0809 -0.1004 -0.9917
vn -0.7948 -0.0776 -0.6019
vn -0.9891 -0.0343 -0.1435
vn -0.7369 0.0176 -0.6757
vn -0.7098 0.3288 -0.6230
vn -0.6829 0.4346 -0.5872
vt 0.052395 0.260240
vt 0.039353 0.262987
vt 0.027664 0.265122
vt 0.024160 0.265590
vt 0.017510 0.266901
vt 0.009697 0.267561
vt 0.006777 0.267934
vt 0.004910 0.256809
vt 0.007370 0.240075
vt 0.009164 0.232165
vt 0.007156 0.211048
vt 0.006730 0.198506
vt 0.003921 0.177329
vt 0.001850 0.163834
vt 0.000205 0.152364
vt -0.000000 0.147773
vt 0.006933 0.142090
vt 0.008422 0.140925
vt 0.016345 0.137766
vt 0.030146 0.121919
vt 0.031348 0.120426
vt 0.031038 0.118737
vt 0.028687 0.109282
vt 0.026525 0.099606
vt 0.023405 0.096591
vt 0.021690 0.094865
vt 0.019540 0.089941
vt 0.018519 0.087714
vt 0.027795 0.082387
vt 0.033517 0.078575
vt 0.060768 0.060022
vt 0.068843 0.055368
vt 0.089882 0.041366
vt 0.112207 0.029587
vt 0.122873 0.024869
vt 0.140390 0.018104
vt 0.178204 0.312316
vt 0.173316 0.313316
vt 0.155425 0.321555
vt 0.141220 0.326756
vt 0.125905 0.332796
vt 0.114041 0.331720
vt 0.109667 0.331394
vt 0.109247 0.326259
vt 0.100049 0.308239
vt 0.097114 0.299849
vt 0.083153 0.276868
vt 0.079306 0.271945
vt 0.071653 0.266095
vt 0.069076 0.263906
vt 0.062297 0.261764
vt 0.055009 0.259774
vt 0.053853 0.260030
vt 0.191385 0.298785
vt 0.156659 0.009911
vt 0.163476 0.006890
vt 0.194065 0.000051
vt 0.196773 -0.000000
vt 0.209699 0.013074
vt 0.213541 0.017590
vt 0.193589 0.292727
vt 0.220237 0.032027
vt 0.220204 0.044609
vt 0.219804 0.060676
vt 0.219560 0.063769
vt 0.219519 0.068570
vt 0.216787 0.088798
vt 0.217167 0.104757
vt 0.216758 0.114587
vt 0.217311 0.129833
vt 0.218638 0.143224
vt 0.219249 0.162481
vt 0.220237 0.175586
vt 0.217823 0.206197
vt 0.217397 0.214089
vt 0.208369 0.257073
vt 0.197614 0.281645
vt 0.217670 0.022451
vt 0.219160 0.028443
vt 0.824928 0.719078
vt 0.814782 0.701472
vt 0.818907 0.698507
vt 0.823461 0.700087
vt 0.827689 0.701561
vt 0.841903 0.707620
vt 0.225072 0.012995
vt 0.220237 0.019918
vt 0.221286 0.016588
vt 0.222739 0.010939
vt 0.901660 0.791569
vt 0.900415 0.803071
vt 0.858752 0.758746
vt 0.878329 0.744353
vt 0.885780 0.752712
vt 0.903554 0.773173
vt 0.844868 0.710342
vt 0.223006 0.204165
vt 0.226096 0.202358
vt 0.246935 0.245463
vt 0.231806 0.249856
vt 0.275145 0.297256
vt 0.248362 0.296351
vt 0.246214 0.289668
vt 0.242290 0.277443
vt 0.284015 0.322481
vt 0.266102 0.314421
vt 0.261212 0.313439
vt 0.269060 0.229442
vt 0.299467 0.269989
vt 0.243171 0.188800
vt 0.257795 0.171870
vt 0.287206 0.208342
vt 0.321016 0.244552
vt 0.299630 0.184630
vt 0.335948 0.218379
vt 0.269670 0.154023
vt 0.280149 0.142384
vt 0.306050 0.158660
vt 0.350699 0.192340
vt 0.963952 0.584191
vt 0.966761 0.597048
vt 0.963233 0.597183
vt 0.963437 0.593810
vt 0.963193 0.603854
vt 0.969759 0.608051
vt 0.963193 0.610836
vt 0.420202 0.230269
vt 0.388427 0.210026
vt 0.382015 0.166865
vt 0.418729 0.192018
vt 0.342934 0.144809
vt 0.334062 0.105621
vt 0.375822 0.121839
vt 0.418406 0.146016
vt 0.303250 0.127911
vt 0.271932 0.122256
vt 0.262103 0.102903
vt 0.294035 0.099650
vt 0.868451 0.874245
vt 0.835549 0.821372
vt 0.844913 0.787196
vt 0.884995 0.841031
vt 0.814782 0.779966
vt 0.818051 0.746115
vt 0.897521 0.828104
vt 0.614260 0.327889
vt 0.614289 0.326909
vt 0.615426 0.327335
vt 0.699471 0.877711
vt 0.698819 0.879392
vt 0.698771 0.877284
vt 0.685913 0.899479
vt 0.685237 0.870971
vt 0.691665 0.898090
vt 0.616205 0.307547
vt 0.632048 0.313890
vt 0.629265 0.320564
vt 0.622341 0.323929
vt 0.278422 0.077784
vt 0.317943 0.074319
vt 0.247933 0.088275
vt 0.231527 0.072745
vt 0.258960 0.057133
vt 0.296192 0.047021
vt 0.432281 0.202821
vt 0.431896 0.215042
vt 0.429956 0.235617
vt 0.437050 0.169040
vt 0.435023 0.182187
vt 0.635017 0.317074
vt 0.632952 0.318322
vt 0.239589 0.033254
vt 0.272635 0.020410
vt 0.220937 0.056938
vt 0.220897 0.052089
vt 0.220659 0.048907
vt 0.220269 0.032609
vt 0.253195 -0.000000
vt 0.223230 0.094029
vt 0.223600 0.078042
vt 0.228739 0.099695
vt 0.242666 0.112814
vt 0.223628 0.104043
vt 0.229066 0.125945
vt 0.223089 0.119264
vt 0.222590 0.196098
vt 0.253480 0.130100
vt 0.240596 0.144819
vt 0.221796 0.132414
vt 0.225987 0.159707
vt 0.221200 0.151663
vt 0.220237 0.164612
vt 0.329767 0.328667
vt 0.329794 0.332147
vt 0.325422 0.332457
vt 0.313564 0.333486
vt 0.312053 0.320542
vt 0.298233 0.327575
vt 0.362812 0.281588
vt 0.343466 0.305623
vt 0.327559 0.295702
vt 0.348646 0.269965
vt 0.428067 0.269039
vt 0.408905 0.259626
vt 0.401754 0.242500
vt 0.426510 0.256516
vt 0.393618 0.255277
vt 0.380703 0.235346
vt 0.434288 0.259639
vt 0.432457 0.270476
vt 0.431775 0.243329
vt 0.379274 0.263239
vt 0.365109 0.247199
vt 0.970278 0.527447
vt 0.970968 0.523991
vt 0.973756 0.525819
vt 0.971288 0.552874
vt 0.978751 0.579431
vt 0.964483 0.578151
vt 0.967109 0.553118
vt 0.968149 0.545691
vt 0.984543 0.549758
vt 0.992578 0.579083
vt 0.974875 0.622302
vt 0.964954 0.629238
vt 0.964219 0.621279
vt 0.963355 0.612622
vt 0.981177 0.614262
vt 0.963271 0.611595
vt 0.995442 0.619459
vt 0.987454 0.629786
vt 0.971065 0.640951
vt 0.965582 0.636198
vt 0.965151 0.631728
vt 0.966129 0.644070
vt 0.965968 0.641983
vt 0.982092 0.600550
vt 0.996666 0.603027
vt 0.893247 0.862406
vt 0.889081 0.895060
vt 0.894354 0.853153
vt 0.689062 0.906094
vt 0.688428 0.907861
vt 0.685412 0.916206
vt 0.677582 0.899630
vt 0.430001 0.140347
vt 0.438848 0.153391
vt 0.438658 0.157865
vt 0.876104 0.902799
vt 0.888219 0.901876
vt 0.886951 0.912494
vt 0.639198 0.314850
vt 0.633424 0.305745
vt 0.641118 0.313820
vt 0.614260 0.298001
vt 0.677582 0.864690
vt 0.413326 0.102185
vt 0.397747 0.095166
vt 0.858496 0.909801
vt 0.847251 0.892572
vt 0.361357 0.082530
vt 0.341236 0.051564
vt 0.826004 0.854384
s 0
usemtl meteorFracture
f 172/1/1 163/2/1 164/3/1 165/4/1 166/5/1 167/6/1 158/7/1 159/8/1 160/9/1 174/10/1 175/11/1 176/12/1 177/13/1 178/14/1 179/15/1 180/16/1 181/17/1 182/18/1 183/19/1 184/20/1 161/21/1 162/22/1 185/23/1 186/24/1 187/25/1 188/26/1 189/27/1 190/28/1 191/29/1 192/30/1 193/31/1 194/32/1 195/33/1 196/34/1 197/35/1 198/36/1 199/37/1 200/38/1 201/39/1 202/40/1 168/41/1 169/42/1 170/43/1 171/44/1 203/45/1 204/46/1 205/47/1 206/48/1 207/49/1 208/50/1 209/51/1 210/52/1 173/53/1
f 211/54/2 199/37/2 198/36/2 213/55/2 214/56/2 215/57/2 216/58/2 217/59/2 218/60/2 212/61/2
f 219/62/3 221/63/3 222/64/3 223/65/3 224/66/3 225/67/3 226/68/3 227/69/3 228/70/3 229/71/3 230/72/3 231/73/3 232/74/3 233/75/3 234/76/3 235/77/3 212/61/3 218/60/3 236/78/3 220/79/3
s 1
f 1/80/4 41/81/5 157/82/6 138/83/7 139/84/7 137/85/8
f 41/86/5 154/87/9 156/88/10 157/89/6
f 123/90/11 124/91/12 34/92/13 135/93/14 134/94/11 122/95/11
f 34/92/13 1/80/4 137/85/8 136/96/15 135/93/14
f 147/97/16 2/98/17 23/99/18 140/100/19
f 23/99/18 13/101/20 132/102/21 133/103/22 141/104/22 140/100/19
f 13/101/20 110/105/23 129/106/24 128/107/24 132/102/21
f 13/101/20 23/99/18 60/108/25 25/109/26
f 23/99/18 2/98/17 26/110/27 60/108/25
f 60/108/25 26/110/27 3/111/28 24/112/29
f 25/109/26 60/108/25 24/112/29 14/113/30
f 14/113/30 24/112/29 61/114/31 28/115/32
f 24/112/29 3/111/28 39/116/33 61/114/31
f 61/114/31 39/116/33 11/117/34 38/118/35
f 28/115/32 61/114/31 38/118/35 15/119/36
f 105/120/37 49/121/38 107/122/39 106/123/40
f 97/124/41 107/122/39 49/121/38 5/125/42 96/126/43
f 16/127/44 27/128/45 62/129/46 58/130/47
f 27/128/45 15/119/36 30/131/48 62/129/46
f 62/129/46 30/131/48 8/132/49 56/133/50
f 58/130/47 62/129/46 56/133/50 19/134/51
f 15/119/36 38/118/35 63/135/52 30/131/48
f 38/118/35 11/117/34 40/136/53 63/135/52
f 63/135/52 40/136/53 7/137/54 29/138/55
f 30/131/48 63/135/52 29/138/55 8/132/49
f 22/139/56 57/140/57 64/141/58 59/142/59
f 57/140/57 10/143/60 35/144/61 64/141/58
f 64/141/58 35/144/61 1/80/4 34/92/13
f 59/142/59 64/141/58 34/92/13 124/91/12 125/145/62
f 115/146/63 65/147/64 116/148/65
f 115/149/63 114/150/66 65/151/64
f 20/152/67 54/153/68 65/151/64 114/150/66 117/154/69
f 54/155/68 21/156/70 120/157/71 113/158/72 116/148/65 65/147/64
f 8/132/49 29/138/55 66/159/73 32/160/74
f 29/138/55 7/137/54 33/161/75 66/159/73
f 66/159/73 33/161/75 9/162/76 31/163/77
f 32/160/74 66/159/73 31/163/77 10/164/60
f 16/127/44 58/130/47 93/165/78 92/166/79 91/167/80
f 58/130/47 19/134/51 108/168/81 98/169/82 93/165/78
f 120/157/71 21/156/70 112/170/83 111/171/84
f 10/164/60 31/163/77 67/172/85 35/173/61
f 67/172/85 31/163/77 9/162/76 151/174/86 152/175/87 153/176/88
f 154/87/9 41/86/5 67/172/85 153/176/88 155/177/89
f 35/173/61 67/172/85 41/86/5 1/178/4
f 148/179/90 150/180/91 9/162/76 33/161/75 68/181/92
f 33/161/75 7/137/54 36/182/93 68/181/92
f 149/183/94 68/181/92 36/182/93 12/184/95 144/185/96
f 68/181/92 149/183/94 148/179/90
f 9/162/76 150/180/91 151/174/86
f 2/98/17 147/97/16 146/186/97
f 7/137/54 40/136/53 69/187/98 36/182/93
f 40/136/53 11/117/34 39/116/33 69/187/98
f 69/187/98 39/116/33 3/111/28 37/188/99
f 36/182/93 69/187/98 37/188/99 12/184/95
f 142/189/100 12/184/95 37/188/99 70/190/101 143/191/102
f 37/188/99 3/111/28 26/110/27 70/190/101
f 145/192/103 70/190/101 26/110/27 2/98/17 146/186/97
f 70/190/101 145/192/103 143/191/102
f 12/184/95 142/189/100 144/185/96
f 17/193/104 88/194/105 86/195/106 85/196/107 45/197/108
f 110/105/23 13/101/20 45/197/108 85/196/107 109/198/109
f 4/199/110 42/200/111 71/201/112 46/202/113
f 42/200/111 17/193/104 45/197/108 71/201/112
f 71/201/112 45/197/108 13/101/20 25/109/26
f 46/202/113 71/201/112 25/109/26 14/113/30
f 6/203/114 43/204/115 72/205/116 47/206/117
f 43/204/115 18/207/118 48/208/119 72/205/116
f 72/205/116 48/208/119 15/119/36 27/128/45
f 47/206/117 72/205/116 27/128/45 16/127/44
f 6/203/114 47/206/117 81/209/120 79/210/121
f 47/206/117 16/127/44 91/167/80 84/211/122 81/209/120
f 18/207/118 44/212/123 73/213/124 48/208/119
f 44/212/123 4/199/110 46/202/113 73/213/124
f 73/213/124 46/202/113 14/113/30 28/115/32
f 48/208/119 73/213/124 28/115/32 15/119/36
f 87/214/125 88/215/105 17/216/104
f 74/217/126 50/218/127 104/219/128 103/220/129
f 74/217/126 103/220/129 102/221/130
f 17/216/104 42/222/111 74/217/126 102/221/130 87/214/125
f 50/218/127 74/217/126 42/222/111 4/223/110
f 75/224/131 90/225/132 89/226/133 94/227/134
f 96/126/43 5/125/42 51/228/135 75/224/131 94/227/134 95/229/136
f 75/224/131 51/228/135 18/230/118 43/231/115
f 90/225/132 75/224/131 43/231/115 6/232/114 82/233/137 83/234/138
f 6/232/114 79/235/121 80/236/139 82/233/137
f 5/125/42 49/121/38 76/237/140 51/228/135
f 104/219/128 50/218/127 76/237/140 49/121/38 105/120/37
f 76/237/140 50/218/127 4/223/110 44/238/123
f 51/228/135 76/237/140 44/238/123 18/230/118
f 127/239/141 118/240/142 22/139/56 59/142/59 126/241/143
f 125/145/62 126/241/143 59/142/59
f 117/154/69 131/242/144 20/152/67
f 99/243/145 100/244/146 52/245/147 20/152/67 131/242/144
f 52/246/147 100/247/146 101/248/148 108/168/81 19/134/51
f 53/249/149 22/139/56 118/240/142 119/250/150 121/251/151
f 130/252/152 112/170/83 21/156/70 53/253/149 121/254/151
f 21/156/70 54/155/68 77/255/153 53/253/149
f 54/153/68 20/152/67 52/245/147 77/256/153
f 77/257/153 52/246/147 19/134/51 55/258/154
f 53/249/149 77/259/153 55/260/154 22/139/56
f 19/134/51 56/133/50 78/261/155 55/258/154
f 56/133/50 8/132/49 32/160/74 78/261/155
f 78/261/155 32/160/74 10/164/60 57/262/57
f 55/260/154 78/263/155 57/140/57 22/139/56
